<svg width="640" height="58" viewBox="0 0 1997 181" fill="none" xmlns="http://www.w3.org/2000/svg">
<path d="M781.375 64.5022V178.332H771.291L704.248 83.0107H703.361V178.332H693V64.5022H703.029L770.294 159.935H771.18V64.5022H781.375Z" fill="#2F3845"/>
<path d="M811.545 178.332V64.5022H877.369V73.8398H821.906V116.693H873.878V126.03H821.906V168.995H878.477V178.332H811.545Z" fill="#2F3845"/>
<path d="M904.186 178.332V64.5022H940.811C948.864 64.5022 955.586 66.0584 960.979 69.171C966.409 72.2465 970.491 76.4336 973.225 81.7323C975.995 87.031 977.38 92.9967 977.38 99.6294C977.38 106.262 976.013 112.246 973.28 117.582C970.546 122.881 966.483 127.086 961.09 130.199C955.697 133.274 948.993 134.812 940.977 134.812H912.165V125.475H940.7C946.647 125.475 951.579 124.363 955.494 122.14C959.409 119.879 962.328 116.804 964.248 112.913C966.206 109.023 967.185 104.595 967.185 99.6294C967.185 94.6642 966.206 90.2362 964.248 86.3455C962.328 82.4549 959.391 79.3979 955.439 77.1747C951.523 74.9514 946.555 73.8398 940.534 73.8398H914.548V178.332H904.186Z" fill="#2F3845"/>
<path d="M990.29 178.332H979.43L1020.71 64.5022H1031.79L1073.07 178.332H1062.21L1026.64 78.0084H1025.86L990.29 178.332ZM998.103 134.701H1054.4V144.039H998.103V134.701Z" fill="#2F3845"/>
<path d="M1136.4 64.5022H1148.37L1189.54 163.659H1190.53L1231.7 64.5022H1243.67V178.332H1233.92V86.4567H1233.03L1194.74 178.332H1185.33L1147.04 86.4567H1146.15V178.332H1136.4V64.5022Z" fill="#2F3845"/>
<path d="M1362.71 100.074H1352.3C1351.52 96.1834 1350.12 92.5891 1348.09 89.2913C1346.09 85.9565 1343.58 83.0477 1340.55 80.5651C1337.52 78.0825 1334.09 76.1557 1330.24 74.7847C1326.4 73.4137 1322.25 72.7282 1317.78 72.7282C1310.61 72.7282 1304.07 74.5994 1298.16 78.3419C1292.29 82.0843 1287.58 87.5868 1284.03 94.8494C1280.52 102.075 1278.77 110.931 1278.77 121.417C1278.77 131.978 1280.52 140.871 1284.03 148.096C1287.58 155.322 1292.29 160.806 1298.16 164.548C1304.07 168.254 1310.61 170.106 1317.78 170.106C1322.25 170.106 1326.4 169.421 1330.24 168.05C1334.09 166.679 1337.52 164.77 1340.55 162.325C1343.58 159.842 1346.09 156.934 1348.09 153.599C1350.12 150.264 1351.52 146.651 1352.3 142.76H1362.71C1361.79 147.985 1360.05 152.858 1357.5 157.378C1354.99 161.862 1351.78 165.789 1347.86 169.161C1343.99 172.533 1339.52 175.164 1334.46 177.054C1329.39 178.944 1323.84 179.889 1317.78 179.889C1308.25 179.889 1299.79 177.499 1292.4 172.719C1285.01 167.902 1279.21 161.121 1275 152.376C1270.83 143.631 1268.74 133.312 1268.74 121.417C1268.74 109.523 1270.83 99.2033 1275 90.4585C1279.21 81.7138 1285.01 74.9514 1292.4 70.1714C1299.79 65.3544 1308.25 62.9459 1317.78 62.9459C1323.84 62.9459 1329.39 63.8908 1334.46 65.7805C1339.52 67.6332 1343.99 70.2641 1347.86 73.673C1351.78 77.045 1354.99 80.9727 1357.5 85.4562C1360.05 89.9398 1361.79 94.8124 1362.71 100.074Z" fill="#2F3845"/>
<path d="M1387.05 178.332V64.5022H1423.68C1431.73 64.5022 1438.45 66.0584 1443.84 69.171C1449.27 72.2465 1453.36 76.4336 1456.09 81.7323C1458.86 87.031 1460.24 92.9967 1460.24 99.6294C1460.24 106.262 1458.88 112.246 1456.14 117.582C1453.41 122.881 1449.35 127.086 1443.95 130.199C1438.56 133.274 1431.86 134.812 1423.84 134.812H1395.03V125.475H1423.56C1429.51 125.475 1434.44 124.363 1438.36 122.14C1442.27 119.879 1445.19 116.804 1447.11 112.913C1449.07 109.023 1450.05 104.595 1450.05 99.6294C1450.05 94.6642 1449.07 90.2362 1447.11 86.3455C1445.19 82.4549 1442.26 79.3979 1438.3 77.1747C1434.39 74.9514 1429.42 73.8398 1423.4 73.8398H1397.41V178.332H1387.05Z" fill="#2F3845"/>
<path d="M1498.14 81.7882V64.5025H1588.67V81.7882H1553.6V178.333H1533.21V81.7882H1498.14Z" fill="#2F3845"/>
<path d="M1630.02 180C1621.71 180 1614.51 178.166 1608.41 174.497C1602.32 170.829 1597.59 165.697 1594.23 159.102C1590.9 152.506 1589.24 144.799 1589.24 135.98C1589.24 127.161 1590.9 119.435 1594.23 112.802C1597.59 106.17 1602.32 101.019 1608.41 97.3509C1614.51 93.6826 1621.71 91.8484 1630.02 91.8484C1638.33 91.8484 1645.54 93.6826 1651.63 97.3509C1657.72 101.019 1662.43 106.17 1665.76 112.802C1669.12 119.435 1670.8 127.161 1670.8 135.98C1670.8 144.799 1669.12 152.506 1665.76 159.102C1662.43 165.697 1657.72 170.829 1651.63 174.497C1645.54 178.166 1638.33 180 1630.02 180ZM1630.13 163.882C1634.64 163.882 1638.41 162.64 1641.43 160.158C1644.46 157.638 1646.72 154.266 1648.19 150.042C1649.71 145.818 1650.47 141.112 1650.47 135.924C1650.47 130.7 1649.71 125.975 1648.19 121.751C1646.72 117.49 1644.46 114.099 1641.43 111.58C1638.41 109.06 1634.64 107.8 1630.13 107.8C1625.51 107.8 1621.67 109.06 1618.61 111.58C1615.58 114.099 1613.31 117.49 1611.79 121.751C1610.31 125.975 1609.58 130.7 1609.58 135.924C1609.58 141.112 1610.31 145.818 1611.79 150.042C1613.31 154.266 1615.58 157.638 1618.61 160.158C1621.67 162.64 1625.51 163.882 1630.13 163.882Z" fill="#2F3845"/>
<path d="M1724.95 180C1716.64 180 1709.43 178.166 1703.34 174.497C1697.24 170.829 1692.52 165.697 1689.15 159.102C1685.83 152.506 1684.17 144.799 1684.17 135.98C1684.17 127.161 1685.83 119.435 1689.15 112.802C1692.52 106.17 1697.24 101.019 1703.34 97.3509C1709.43 93.6826 1716.64 91.8484 1724.95 91.8484C1733.26 91.8484 1740.46 93.6826 1746.56 97.3509C1752.65 101.019 1757.36 106.17 1760.69 112.802C1764.05 119.435 1765.73 127.161 1765.73 135.98C1765.73 144.799 1764.05 152.506 1760.69 159.102C1757.36 165.697 1752.65 170.829 1746.56 174.497C1740.46 178.166 1733.26 180 1724.95 180ZM1725.06 163.882C1729.57 163.882 1733.33 162.64 1736.36 160.158C1739.39 157.638 1741.64 154.266 1743.12 150.042C1744.64 145.818 1745.39 141.112 1745.39 135.924C1745.39 130.7 1744.64 125.975 1743.12 121.751C1741.64 117.49 1739.39 114.099 1736.36 111.58C1733.33 109.06 1729.57 107.8 1725.06 107.8C1720.44 107.8 1716.6 109.06 1713.53 111.58C1710.51 114.099 1708.23 117.49 1706.72 121.751C1705.24 125.975 1704.5 130.7 1704.5 135.924C1704.5 141.112 1705.24 145.818 1706.72 150.042C1708.23 154.266 1710.51 157.638 1713.53 160.158C1716.6 162.64 1720.44 163.882 1725.06 163.882Z" fill="#2F3845"/>
<path d="M1802.81 64.5025V178.333H1782.75V64.5025H1802.81Z" fill="#2F3845"/>
<path d="M1841.72 151.542L1841.66 127.254H1844.88L1875.46 92.96H1898.9L1861.28 134.979H1857.12L1841.72 151.542ZM1823.44 178.333V64.5025H1843.49V178.333H1823.44ZM1876.85 178.333L1849.14 139.481L1862.66 125.308L1900.84 178.333H1876.85Z" fill="#2F3845"/>
<path d="M1912.27 178.333V92.96H1932.33V178.333H1912.27ZM1922.35 80.8434C1919.18 80.8434 1916.44 79.7873 1914.15 77.6752C1911.86 75.5261 1910.72 72.9508 1910.72 69.9495C1910.72 66.911 1911.86 64.3358 1914.15 62.2237C1916.44 60.0746 1919.18 59 1922.35 59C1925.57 59 1928.3 60.0746 1930.55 62.2237C1932.84 64.3358 1933.99 66.911 1933.99 69.9495C1933.99 72.9508 1932.84 75.5261 1930.55 77.6752C1928.3 79.7873 1925.57 80.8434 1922.35 80.8434Z" fill="#2F3845"/>
<path d="M1995.45 92.96V108.523H1946.52V92.96H1995.45ZM1958.6 72.5062H1978.66V152.654C1978.66 155.359 1979.07 157.434 1979.88 158.879C1980.73 160.287 1981.84 161.251 1983.2 161.769C1984.57 162.288 1986.08 162.548 1987.75 162.548C1989 162.548 1990.15 162.455 1991.18 162.27C1992.25 162.084 1993.07 161.918 1993.62 161.769L1997 177.499C1995.93 177.869 1994.4 178.277 1992.4 178.722C1990.44 179.166 1988.04 179.426 1985.2 179.5C1980.17 179.648 1975.65 178.888 1971.62 177.221C1967.6 175.516 1964.4 172.886 1962.04 169.328C1959.71 165.771 1958.57 161.325 1958.6 155.989V72.5062Z" fill="#2F3845"/>
<g clip-path="url(#clip0_1976_17904)">
<path d="M-0.255859 179.528V65.6541C-0.255859 65.206 0.113364 64.8574 0.549717 64.8574H31.9168C59.4071 64.8574 72.8333 77.6539 72.8333 99.3962C72.8333 121.139 59.4071 133.935 31.9168 133.935H22.0485V179.511C22.0485 179.959 21.6793 180.308 21.2429 180.308H0.549717C0.0965807 180.308 -0.255859 179.943 -0.255859 179.511V179.528ZM22.0653 115.711H34.0314C45.0242 115.711 50.529 110.267 50.529 99.3962C50.529 88.5251 45.0242 83.0812 34.0314 83.0812H22.0653V115.711Z" fill="#009175"/>
<path d="M334.882 94.5828V179.527C334.882 179.976 334.513 180.324 334.077 180.324H315.313C314.86 180.324 314.508 179.959 314.508 179.527V94.5828C314.508 94.1347 314.877 93.7861 315.313 93.7861H334.077C334.53 93.7861 334.882 94.1513 334.882 94.5828Z" fill="#009175"/>
<path d="M542.367 160.291C563.564 143.877 576.436 118.732 576.436 90.1016C576.436 40.675 535.788 0.476562 485.809 0.476562C435.83 0.476562 395.182 40.675 395.182 90.1016C395.182 112.541 403.59 133.072 417.419 148.806C418.527 143.296 422.37 140.142 427.119 136.092C416.932 125.022 410.404 106.566 410.404 90.1016C410.404 48.9736 444.238 15.5302 485.809 15.5302C527.38 15.5302 561.214 48.9902 561.214 90.1016C561.214 109.636 554.35 127.047 541.88 140.358L542.35 160.291H542.367Z" fill="#F9B800"/>
<path d="M324.829 83.4957C332.578 83.4957 338.86 77.2835 338.86 69.6204C338.86 61.9573 332.578 55.7451 324.829 55.7451C317.08 55.7451 310.799 61.9573 310.799 69.6204C310.799 77.2835 317.08 83.4957 324.829 83.4957Z" fill="#F9B800"/>
<path d="M506.77 109.122C508.163 110.848 509.338 114.068 509.388 116.275L509.858 136.043V144.209C509.858 149.088 509.825 154.183 509.741 159.561C509.674 163.943 506.065 167.478 501.618 167.478C497.137 167.478 493.495 163.876 493.495 159.445V124.806C493.495 101.886 484.718 92.5912 462.514 92.5912C440.31 92.5912 426.129 100.657 423.259 112.923C422.604 115.711 423.041 118.715 424.786 120.972C426.867 123.678 430.14 125.055 434.386 125.055C441.066 125.055 446.654 120.458 447.091 109.072L447.409 106.035C447.695 103.379 449.977 101.388 452.679 101.388C463.689 101.388 466.659 105.886 466.659 121.039V126.632C461.759 127.91 457.009 129.205 453.502 130.217C426.817 137.868 419.986 146.433 419.986 158.615C419.986 172.706 429.301 180.507 442.677 180.507C454.509 180.507 459.963 175.81 467.566 167.926C470.049 175.81 476.259 180.357 486.396 180.357L500.275 180.125H546.059C546.881 175.76 544.011 171.71 539.799 170.847L537.55 170.382C537.382 161.984 537.315 151.428 537.315 144.159V121.437L537.802 96.3587C537.802 95.9438 537.718 95.5455 537.567 95.1471V94.2841C537.466 89.9356 537.986 85.6037 538.926 81.3548C541.746 68.7078 541.377 42.3182 491.397 37.8535C491.397 37.8535 494.787 43.8949 496.751 54.4175C498.715 64.9402 499.956 88.7074 529.595 90.4667C529.595 90.4667 532.498 68.9567 512.393 52.4757C512.393 52.4757 530.266 60.4921 533.27 87.4294C533.623 90.6161 531.642 93.6202 528.554 94.5828L504.169 102.201C503.011 102.566 502.575 103.977 503.347 104.906L506.703 109.039L506.77 109.122ZM466.693 161.934C461.759 165.436 459.124 166.681 456.002 166.681C450.162 166.681 445.597 162.714 445.597 154.134C445.597 146.084 450.699 140.325 458.536 137.039C460.634 136.076 463.504 135.097 466.693 134.117V161.934Z" fill="#009175"/>
<path d="M121.605 151.445V152.226C121.605 156.292 120.212 163.097 110.914 163.097C104.117 163.097 100.223 159.014 100.223 151.91V141.636H141.929C142.382 141.636 142.734 141.271 142.734 140.84V121.371C142.734 104.193 129.644 92.21 110.914 92.21C92.1844 92.21 79.0938 104.143 79.0938 122.599V149.902C79.0938 168.375 91.5802 180.291 110.914 180.291C130.248 180.291 141.761 170.333 142.734 152.242L142.785 151.412H121.605V151.445ZM121.605 124.442H100.223V120.624C100.223 113.205 103.815 109.438 110.914 109.438C118.013 109.438 121.605 113.205 121.605 120.624V124.442Z" fill="#009175"/>
<path d="M194.191 116.275C194.628 116.275 194.997 115.927 194.997 115.479V93.5039H194.191C186.84 93.5039 179.49 96.7736 174.119 103.064V94.3338C174.119 93.8856 173.75 93.5371 173.314 93.5371H153.862C153.409 93.5371 153.057 93.9022 153.057 94.3338V179.511C153.057 179.959 153.426 180.307 153.862 180.307H173.8C174.253 180.307 174.606 179.942 174.606 179.511V135.362C174.606 132.092 174.623 116.674 194.208 116.275H194.191Z" fill="#009175"/>
<path d="M282.485 91.8945C273.892 91.8945 267.649 97.6538 261.624 104.127C258.855 96.4256 253.266 92.0439 246.1 92.0439C237.759 92.0439 231.046 97.4546 225.558 102.318V94.4173C225.558 93.9692 225.189 93.6206 224.752 93.6206H205.452C204.999 93.6206 204.646 93.9858 204.646 94.4173V179.528C204.646 179.976 205.016 180.325 205.452 180.325H225.39C225.843 180.325 226.196 179.959 226.196 179.528V131.96C226.196 126.018 228.713 120.259 233.312 116.425C234.839 115.164 236.366 114.284 237.725 114.284C239.991 114.284 242.29 115.048 242.29 120.674V179.511C242.29 179.959 242.66 180.308 243.096 180.308H263.034C263.487 180.308 263.84 179.943 263.84 179.511V132.276C263.84 126.483 266.273 120.923 270.62 117.039C272.416 115.429 274.195 114.268 275.537 114.268C277.836 114.268 279.951 115.048 279.951 120.658V179.495C279.951 179.943 280.32 180.291 280.757 180.291H300.695C301.148 180.291 301.5 179.926 301.5 179.495V115.346C301.5 99.8778 295.106 91.8613 282.502 91.8613L282.485 91.8945Z" fill="#009175"/>
<path d="M388.048 160.839C386.789 160.989 385.531 160.989 384.071 160.989C380.899 160.989 375.562 160.258 375.562 155.312V111.23H384.91C385.363 111.23 385.715 110.865 385.715 110.434V93.9857C385.715 93.5376 385.346 93.1891 384.91 93.1891H375.562V91.214C375.562 79.1146 365.643 69.3057 353.408 69.3057V93.1891H343.725V111.23H353.408V162.101C353.408 174.184 361.145 180.324 376.401 180.324C381.184 180.324 384.859 180.076 388.283 179.511L388.954 179.395V160.723L388.065 160.839H388.048Z" fill="#009175"/>
</g>
<path d="M567 7.59278V0H606.484V7.59278H591.188V50H582.296V7.59278H567Z" fill="#009175"/>
<path d="M614.096 0H625.066L639.758 36.2305H640.338L655.03 0H666V50H657.398V15.6494H656.938L643.262 49.8535H636.834L623.157 15.5762H622.698V50H614.096V0Z" fill="#009175"/>
<defs>
<clipPath id="clip0_1976_17904">
<rect width="590" height="181" fill="white"/>
</clipPath>
</defs>
</svg>
